<?xml version="1.0" standalone="no"?>
<!DOCTYPE svg PUBLIC "-//W3C//DTD SVG 20010904//EN"
 "http://www.w3.org/TR/2001/REC-SVG-20010904/DTD/svg10.dtd">
<svg version="1.0" xmlns="http://www.w3.org/2000/svg"
 width="640.000000pt" height="308.000000pt" viewBox="0 0 640.000000 308.000000"
 preserveAspectRatio="xMidYMid meet">

<g transform="translate(0.000000,308.000000) scale(0.100000,-0.100000)"
fill="#000000" stroke="none">
<path d="M3864 2880 l4 -35 -102 0 c-56 1 -108 5 -115 10 -8 4 -48 11 -90 15
-42 4 -84 11 -94 15 -13 6 -16 3 -11 -9 4 -11 1 -16 -10 -16 -33 0 -95 -51
-107 -88 -22 -66 7 -322 40 -355 15 -15 14 -120 -1 -135 -9 -9 -9 -12 0 -12 8
0 10 -9 6 -24 -3 -14 -3 -34 1 -46 5 -17 10 -19 21 -9 11 9 14 9 14 -1 0 -10
4 -9 18 2 52 45 56 28 7 -29 -44 -52 -49 -122 -6 -80 11 10 12 7 6 -13 -20
-66 -83 -175 -129 -225 l-51 -55 -85 -10 c-47 -6 -110 -19 -140 -30 -30 -10
-86 -26 -125 -36 -38 -9 -79 -23 -90 -30 -11 -7 -58 -26 -105 -42 -47 -16
-119 -47 -160 -68 -61 -32 -82 -49 -113 -94 -21 -30 -49 -62 -63 -70 -13 -8
-24 -19 -24 -25 -1 -10 -45 -43 -128 -98 -48 -31 -66 -29 -110 7 -15 13 -40
24 -55 24 -25 0 -28 -4 -25 -23 5 -21 3 -22 -26 -12 -17 5 -36 14 -43 19 -7 5
-21 7 -33 3 -17 -5 -19 -10 -9 -21 8 -10 8 -14 0 -14 -6 0 -13 11 -17 25 -3
14 -11 25 -16 25 -6 0 -7 -7 -4 -15 3 -8 9 -22 12 -30 3 -8 2 -15 -3 -15 -5 0
-24 -14 -41 -31 -19 -19 -38 -29 -47 -25 -18 6 -19 2 -5 -25 12 -21 7 -24 -20
-9 -15 8 -19 5 -23 -16 -3 -20 1 -27 19 -34 31 -12 31 -30 0 -30 -14 0 -28 -5
-31 -10 -3 -6 -16 -10 -27 -10 -12 0 -37 -12 -57 -27 -20 -15 -38 -26 -40 -25
-6 5 -21 -21 -21 -35 0 -7 6 -13 13 -13 8 0 13 -15 13 -39 1 -22 10 -52 22
-68 13 -18 19 -38 16 -50 -9 -35 30 -50 166 -63 69 -6 146 -15 171 -20 25 -5
138 -16 250 -25 243 -19 400 -45 529 -88 l95 -32 -3 -35 c-2 -19 -8 -38 -14
-41 -5 -4 -3 -13 7 -23 9 -9 15 -23 12 -30 -8 -20 30 -50 97 -76 33 -13 68
-34 79 -47 12 -13 27 -23 34 -23 7 0 13 -4 13 -9 0 -9 84 -44 115 -48 11 -1
49 -15 85 -31 42 -19 98 -33 160 -41 130 -17 147 -16 210 6 44 16 57 26 64 49
14 48 28 73 43 78 8 3 12 2 9 -3 -3 -5 6 -21 21 -35 19 -19 29 -24 37 -16 8 8
6 14 -7 21 -14 9 -16 14 -6 25 7 8 9 29 6 48 -3 22 -1 37 6 40 9 5 9 8 -1 12
-7 3 -19 13 -28 22 -9 8 -29 16 -45 17 l-29 2 20 -22 c19 -20 19 -23 5 -35
-14 -12 -18 -11 -26 1 -5 8 -9 10 -9 6 0 -5 -12 0 -27 11 -16 10 -37 21 -49
24 -18 5 -20 2 -16 -20 3 -17 1 -23 -7 -18 -14 9 -14 0 0 -26 8 -16 8 -19 -1
-13 -7 4 -16 2 -21 -6 -6 -10 -11 -6 -19 15 -6 16 -8 31 -5 34 3 3 5 0 5 -6 0
-7 5 -12 12 -12 7 0 -3 15 -21 34 -42 44 -80 34 -81 -19 -1 -38 -16 -50 -44
-37 -22 10 -26 9 -26 -3 0 -11 -7 -14 -25 -9 -18 4 -27 1 -31 -10 -13 -35 -26
-15 -20 32 6 43 5 46 -9 28 -8 -11 -15 -29 -15 -40 -1 -12 -10 -32 -20 -45
-16 -18 -26 -22 -46 -17 -25 7 -26 10 -20 47 6 39 24 75 55 112 8 10 15 31 15
47 1 24 12 38 54 69 29 22 48 42 42 46 -7 4 -6 13 1 26 16 30 7 32 -24 3 -29
-26 -38 -17 -11 11 9 9 14 25 11 35 -4 14 0 20 11 21 14 0 13 2 -3 9 -12 5
-14 9 -6 9 8 1 33 10 55 20 42 20 136 34 136 21 0 -11 49 -3 67 11 13 11 17
10 29 -6 9 -12 26 -19 49 -19 30 0 34 -3 29 -21 -4 -18 1 -24 34 -34 22 -8 44
-11 50 -7 5 3 16 -1 23 -10 10 -12 10 -20 1 -35 -11 -16 -9 -19 8 -19 11 0 23
-7 26 -15 4 -8 12 -15 19 -15 16 0 39 -27 27 -32 -5 -1 -12 -22 -16 -46 -5
-33 -3 -44 9 -48 8 -4 15 -12 15 -18 0 -7 9 -22 21 -34 11 -12 17 -27 14 -32
-3 -6 -1 -10 5 -10 7 0 10 -6 7 -13 -3 -8 0 -14 6 -15 7 0 46 -14 87 -30 119
-46 198 -69 295 -86 90 -15 310 -24 322 -12 4 3 -3 6 -15 6 -11 0 -24 5 -27
10 -3 6 -16 7 -29 4 -17 -4 -27 1 -40 21 -17 25 -17 26 0 17 9 -5 25 -7 35 -5
10 3 26 -2 34 -11 9 -9 26 -16 38 -16 16 0 18 3 9 9 -21 13 29 42 51 29 14 -7
17 -5 17 17 0 33 14 32 40 -5 23 -32 40 -39 40 -15 0 9 6 12 17 8 11 -5 14 -3
8 6 -4 8 -2 16 5 21 9 6 10 12 1 26 -7 14 -10 15 -11 5 0 -12 -3 -12 -12 -3
-7 7 -20 12 -29 12 -11 0 -18 12 -23 39 -3 22 -13 41 -22 45 -14 5 -15 4 -4
-9 21 -25 -5 -17 -30 10 -13 14 -31 25 -41 25 -9 0 -16 6 -15 12 0 7 -3 15 -9
18 -5 3 -11 -10 -13 -28 -3 -25 -7 -32 -19 -28 -8 3 -16 6 -19 6 -2 0 -1 6 2
13 3 8 -2 19 -9 26 -12 9 -16 6 -22 -16 l-8 -28 -8 25 -7 25 -7 -22 c-4 -13
-13 -23 -21 -23 -7 0 -11 -6 -8 -14 9 -23 -35 -31 -55 -11 -15 17 -15 17 2 12
9 -4 17 -2 17 3 0 10 -29 14 -77 12 -17 -1 -20 3 -16 16 6 15 5 15 -10 3 -9
-7 -23 -11 -32 -8 -8 4 -17 2 -20 -4 -4 -5 -23 -18 -43 -29 -22 -11 -30 -19
-19 -20 22 0 22 -13 0 -31 -13 -11 -17 -11 -20 -1 -3 7 -22 12 -46 12 -22 0
-37 3 -34 7 4 4 -6 12 -21 19 -28 12 -54 58 -27 48 9 -4 13 5 13 30 0 35 27
95 50 109 6 4 12 16 11 25 0 10 -3 12 -6 5 -2 -7 -12 -13 -21 -13 -15 0 -15 2
-2 10 13 9 13 10 0 10 -9 0 -21 -5 -28 -12 -8 -8 -12 -9 -12 -1 0 6 12 21 28
32 18 14 22 20 11 21 -18 0 -59 -40 -59 -59 0 -7 -4 -9 -10 -6 -14 9 -12 19 8
42 27 31 57 43 111 43 27 0 53 5 57 11 3 6 20 19 36 29 l29 18 -30 13 c-25 11
-28 15 -13 20 9 4 23 2 30 -4 11 -9 13 -5 8 23 l-5 34 43 -46 c23 -25 52 -49
64 -52 20 -7 21 -5 16 22 -5 24 -2 31 14 36 26 9 52 -2 52 -22 0 -12 -3 -13
-12 -4 -20 20 -47 15 -41 -8 4 -15 11 -18 34 -13 21 4 30 1 35 -11 3 -9 10
-16 16 -16 5 0 7 4 3 9 -3 5 5 13 17 17 17 5 29 -2 57 -35 26 -29 40 -38 50
-32 10 7 11 13 2 30 -8 14 -8 21 -1 21 5 0 10 -5 10 -11 0 -5 4 -7 10 -4 5 3
20 0 32 -7 25 -13 30 -15 54 -17 8 0 12 -6 8 -12 -7 -12 12 -29 32 -29 9 0 9
11 2 39 -8 31 -29 57 -93 116 -45 42 -96 84 -113 93 -112 63 -131 92 -131 205
0 49 -5 68 -37 122 -21 36 -41 65 -45 65 -4 0 -10 -9 -14 -19 -3 -11 -19 -24
-36 -30 -16 -6 -29 -16 -28 -23 1 -7 -2 -24 -8 -37 -8 -21 -11 -22 -25 -8 -14
14 -17 13 -28 -8 -7 -14 -21 -27 -32 -31 -10 -3 -18 -9 -18 -14 0 -5 -11 2
-25 16 -14 14 -25 27 -25 30 0 3 -6 12 -14 19 -12 12 -15 11 -19 -6 -3 -12
-10 -18 -16 -15 -5 3 -16 -1 -24 -9 -20 -20 -25 -19 -48 8 -10 12 -18 16 -19
10 0 -7 -5 -13 -11 -13 -8 0 -7 6 2 17 12 14 12 17 0 21 -7 2 -23 15 -34 28
-28 32 -46 31 -42 -3 4 -37 9 -55 19 -73 4 -8 -4 -3 -18 13 l-25 27 4 -31 c6
-47 -18 -20 -40 46 -11 30 -22 55 -26 55 -12 0 -29 -27 -21 -35 4 -4 0 -6 -8
-3 -8 3 -20 22 -26 43 -6 21 -16 41 -22 43 -14 4 -32 -37 -33 -76 0 -24 -1
-25 -9 -7 -8 18 -9 18 -10 -5 -1 -14 -2 -38 -1 -55 1 -26 -1 -27 -8 -10 -5 11
-10 40 -10 65 -1 33 -4 41 -11 30 -5 -8 -10 -30 -10 -48 0 -22 -4 -31 -11 -26
-6 3 -15 1 -20 -7 -6 -10 -11 -5 -19 16 -11 28 -7 114 7 173 4 16 1 22 -12 22
-9 0 -14 -4 -11 -8 2 -4 -4 -14 -15 -20 -19 -12 -19 -11 -8 10 8 14 -11 3 -50
-31 -34 -29 -64 -51 -66 -49 -3 3 4 13 15 23 11 10 20 23 20 28 0 6 -9 1 -20
-11 -20 -21 -40 -29 -40 -16 0 13 24 50 42 65 12 9 19 22 17 28 -3 8 -18 2
-43 -18 -52 -42 -60 -39 -13 5 44 40 41 62 -5 38 -23 -12 -32 -13 -38 -4 -13
22 -60 -18 -60 -51 0 -15 -4 -30 -9 -34 -11 -6 -35 31 -36 55 0 9 -11 16 -27
18 -24 3 -27 6 -18 23 9 16 6 22 -20 37 -16 10 -28 21 -25 24 6 5 14 37 19 73
1 11 8 30 14 42 7 12 12 31 12 42 0 12 4 21 10 21 5 0 6 -7 3 -17 -4 -11 -3
-14 5 -9 7 4 12 13 12 21 0 8 8 19 18 25 16 10 16 10 -2 8 -10 -2 -21 2 -23 9
-3 8 8 11 36 8 23 -2 41 1 41 6 0 6 5 7 12 3 7 -5 8 -3 4 5 -5 7 -14 10 -20 8
-9 -4 -11 3 -8 19 3 17 15 27 43 35 21 7 36 16 32 22 -3 6 -2 7 4 4 6 -4 57
-9 113 -11 85 -4 108 -9 137 -28 33 -23 42 -40 46 -88 0 -14 9 -31 19 -38 10
-7 18 -19 18 -26 0 -7 19 -30 42 -50 33 -30 47 -36 67 -31 14 3 38 9 54 12 29
6 76 56 105 112 19 39 36 45 40 16 3 -21 72 -75 96 -75 9 0 12 8 8 25 -4 25
11 35 23 14 4 -6 24 -9 44 -8 20 2 43 -1 51 -5 8 -4 4 2 -10 15 l-25 22 24 -8
c18 -5 22 -4 16 6 -3 8 3 3 14 -10 12 -13 21 -20 21 -17 0 4 11 -1 24 -9 13
-9 34 -18 47 -21 13 -3 29 -6 34 -7 6 -2 15 -6 21 -10 18 -11 21 0 17 51 -4
44 -3 46 11 28 17 -21 36 -13 21 8 -38 51 -45 65 -39 80 3 9 10 16 16 16 5 0
7 -4 3 -9 -3 -5 -1 -12 4 -15 5 -3 12 11 16 32 4 20 11 39 16 42 5 3 9 30 10
58 1 30 6 48 10 40 4 -6 5 -16 3 -20 -3 -4 -1 -8 5 -8 5 0 12 -8 15 -17 3 -10
4 1 3 25 -2 35 0 42 13 39 20 -5 40 9 63 45 9 15 50 66 91 112 41 47 82 104
92 126 11 25 24 40 36 40 20 0 20 0 23 54 1 21 7 41 13 45 12 7 -23 71 -39 71
-5 0 -4 11 1 25 8 21 7 25 -9 25 -50 0 -151 75 -136 100 3 6 -5 10 -18 10 -16
0 -26 7 -30 19 -4 17 -45 30 -119 36 -39 4 -60 13 -53 25 3 5 0 11 -7 12 -7 0
-17 2 -23 3 -5 2 -16 3 -22 4 -7 0 -13 11 -13 24 -1 21 -1 21 -15 3 -8 -11
-18 -16 -22 -13 -3 4 -17 -3 -30 -15 -13 -12 -23 -16 -23 -10 0 7 -9 21 -21
33 l-20 20 7 -38 c3 -21 7 -41 8 -44 2 -14 -25 -8 -84 18 -61 27 -122 43 -213
57 -49 8 -91 17 -94 20 -4 3 3 16 15 29 27 29 31 57 5 36 -15 -12 -16 -12 -9
6 6 16 5 18 -5 8 -19 -19 -28 -16 -24 7 5 24 -13 37 -21 16 -7 -19 -44 -21
-44 -3 0 7 -7 22 -15 33 -14 18 -15 17 -11 -16z m-191 -327 c-7 -2 -21 -2 -30
0 -10 3 -4 5 12 5 17 0 24 -2 18 -5z m192 -39 c39 -18 59 -34 73 -61 25 -47 5
-58 -37 -21 -14 13 -20 16 -13 8 17 -20 15 -43 -3 -36 -8 3 -14 0 -12 -7 1 -9
-19 -11 -75 -9 -61 3 -84 0 -108 -14 -16 -10 -30 -23 -30 -29 0 -5 -5 -3 -10
5 -8 13 -10 12 -10 -4 0 -14 -3 -16 -13 -8 -8 7 -19 6 -37 -3 -41 -23 -57 -17
-23 8 18 12 33 30 33 39 0 9 11 25 25 36 20 16 22 21 10 26 -8 3 -15 2 -15 -3
0 -5 -14 -14 -30 -21 -17 -7 -35 -20 -40 -29 -8 -14 -9 -13 -10 4 0 11 11 37
25 57 28 41 94 68 166 68 21 0 41 5 44 10 7 11 43 4 90 -16z m408 -90 l-6 -36
29 15 c27 14 65 20 108 18 15 -1 16 -4 6 -16 -7 -8 -8 -15 -3 -15 5 0 32 -22
61 -49 29 -27 52 -47 52 -45 0 2 10 -6 22 -18 37 -37 92 -254 58 -233 -5 3
-10 17 -10 31 0 13 -4 24 -10 24 -5 0 -7 -7 -4 -15 4 -8 2 -15 -3 -15 -9 0
-36 43 -81 126 -30 55 -78 92 -140 111 -49 14 -62 22 -59 35 3 11 0 15 -10 11
-19 -8 -33 14 -33 53 0 24 14 54 26 54 2 0 0 -16 -3 -36z m-467 -519 c59 -61
112 -63 64 -2 -29 37 -24 53 6 20 16 -18 24 -22 20 -10 -3 9 -2 17 2 17 17 -1
41 -29 48 -56 4 -16 11 -35 17 -42 5 -7 8 -14 5 -17 -7 -8 -48 7 -43 15 3 5
-9 4 -27 -1 -54 -16 -101 -2 -144 42 -39 40 -37 49 6 24 37 -21 46 -18 23 8
-55 60 -36 62 23 2z m694 -21 c0 -8 5 -12 10 -9 6 4 10 -5 10 -19 0 -29 -15
-35 -23 -8 -2 9 -8 25 -12 35 -4 10 -3 17 4 17 6 0 11 -7 11 -16z m-489 -40
c-24 -41 -26 -47 -8 -41 22 8 47 -13 47 -39 0 -31 -24 -27 -28 4 -2 12 -7 20
-12 17 -4 -3 -13 2 -20 10 -10 12 -8 21 10 50 28 46 38 46 11 -1z m539 -15 c0
-11 -7 -19 -16 -19 -11 0 -14 5 -10 16 3 9 6 20 6 25 0 6 5 7 10 4 6 -3 10
-15 10 -26z m-416 -58 c3 -4 -6 -6 -19 -3 -14 2 -25 6 -25 8 0 8 39 4 44 -5z
m-754 -10 c0 -6 -4 -13 -10 -16 -5 -3 -10 1 -10 9 0 9 5 16 10 16 6 0 10 -4
10 -9z m694 -617 c3 -8 2 -12 -4 -9 -6 3 -10 10 -10 16 0 14 7 11 14 -7z m140
-50 c3 -8 1 -14 -3 -14 -5 0 -18 -3 -28 -7 -15 -6 -16 -4 -6 8 9 12 10 18 1
27 -8 8 -5 9 10 5 11 -3 23 -11 26 -19z m221 -28 c16 -2 34 -39 35 -70 0 -24
-2 -27 -15 -16 -13 10 -15 9 -15 -9 0 -14 -9 -25 -25 -31 -14 -5 -25 -16 -25
-25 0 -18 -1 -18 -37 -4 -15 6 -44 12 -64 14 -20 2 -46 11 -58 21 -26 22 -28
54 -3 54 9 0 28 9 42 20 14 11 33 20 43 20 9 0 17 4 17 8 0 15 44 30 70 25 14
-3 30 -6 35 -7z m-650 -6 c3 -5 2 -10 -4 -10 -5 0 -13 5 -16 10 -3 6 -2 10 4
10 5 0 13 -4 16 -10z m53 -45 c26 -30 28 -45 7 -45 -21 0 -68 47 -60 60 10 17
30 11 53 -15z m252 -50 c-7 -9 -15 -13 -17 -11 -7 7 7 26 19 26 6 0 6 -6 -2
-15z m420 -129 c0 -3 -4 -8 -10 -11 -5 -3 -10 -1 -10 4 0 6 5 11 10 11 6 0 10
-2 10 -4z m175 -46 c3 -5 1 -10 -4 -10 -6 0 -11 5 -11 10 0 6 2 10 4 10 3 0 8
-4 11 -10z m-215 -22 c0 -6 -6 -5 -15 2 -8 7 -15 14 -15 16 0 2 7 1 15 -2 8
-4 15 -11 15 -16z m-1095 -58 c3 -5 1 -10 -4 -10 -6 0 -11 5 -11 10 0 6 2 10
4 10 3 0 8 -4 11 -10z m168 -300 c-3 -11 -9 -20 -13 -20 -5 0 -6 9 -3 20 3 11
9 20 13 20 5 0 6 -9 3 -20z m1169 -2 c30 2 43 -11 33 -36 -5 -14 -7 -14 -15
-2 -8 12 -10 10 -10 -7 0 -12 8 -27 18 -32 10 -6 12 -11 4 -11 -7 0 -21 14
-30 30 -9 17 -22 28 -29 26 -6 -3 -14 2 -17 10 -10 25 -7 36 6 28 7 -5 25 -7
40 -6z m-331 -41 c-13 -13 -26 -3 -16 12 3 6 11 8 17 5 6 -4 6 -10 -1 -17z
m-101 4 c3 -1 -2 -6 -10 -11 -22 -14 -50 -12 -50 4 0 13 26 16 60 7z m-813
-63 c-3 -8 -6 -5 -6 6 -1 11 2 17 5 13 3 -3 4 -12 1 -19z m33 -9 c0 -5 -4 -9
-10 -9 -5 0 -10 7 -10 16 0 8 5 12 10 9 6 -3 10 -10 10 -16z m1210 -9 c0 -5
-5 -10 -11 -10 -5 0 -7 5 -4 10 3 6 8 10 11 10 2 0 4 -4 4 -10z m-1210 -49 c0
-6 -4 -13 -10 -16 -5 -3 -10 1 -10 9 0 9 5 16 10 16 6 0 10 -4 10 -9z"/>
<path d="M3728 2473 c7 -3 16 -2 19 1 4 3 -2 6 -13 5 -11 0 -14 -3 -6 -6z"/>
<path d="M3669 2453 c-12 -16 -12 -17 1 -7 8 6 22 14 30 17 13 5 12 6 -1 6 -9
1 -23 -7 -30 -16z"/>
<path d="M3740 2420 c-12 -8 -9 -10 13 -10 15 0 27 5 27 10 0 13 -20 13 -40 0z"/>
<path d="M3546 1800 c7 -7 19 -7 35 -1 23 9 22 10 -10 10 -24 1 -32 -2 -25 -9z"/>
<path d="M3420 1780 c-8 -5 -10 -10 -5 -10 6 0 17 5 25 10 8 5 11 10 5 10 -5
0 -17 -5 -25 -10z"/>
<path d="M3380 1690 c0 -5 5 -10 11 -10 5 0 7 5 4 10 -3 6 -8 10 -11 10 -2 0
-4 -4 -4 -10z"/>
<path d="M4360 1616 c0 -2 7 -7 16 -10 8 -3 12 -2 9 4 -6 10 -25 14 -25 6z"/>
<path d="M4400 1592 c0 -5 7 -15 15 -22 8 -7 15 -9 15 -6 0 4 -7 14 -15 22 -8
9 -15 11 -15 6z"/>
<path d="M3798 1519 c18 -10 37 -17 43 -14 5 4 12 0 15 -8 5 -14 64 -20 64 -7
0 20 -51 39 -120 46 l-34 3 32 -20z"/>
<path d="M3470 1449 c0 -5 5 -7 10 -4 6 3 10 8 10 11 0 2 -4 4 -10 4 -5 0 -10
-5 -10 -11z"/>
<path d="M4163 1294 c9 -17 24 -35 34 -38 17 -7 16 -5 -40 59 -5 6 -2 -4 6
-21z"/>
<path d="M4206 1205 c4 -8 10 -15 16 -15 5 0 6 -5 3 -10 -6 -10 22 -27 30 -18
5 5 -39 58 -48 58 -4 0 -4 -7 -1 -15z"/>
<path d="M3826 671 c-3 -5 1 -12 10 -15 8 -3 13 -2 9 3 -3 5 1 12 7 14 8 4 7
6 -4 6 -9 1 -19 -3 -22 -8z"/>
<path d="M3850 616 c0 -2 7 -6 15 -10 8 -3 15 -1 15 4 0 6 -7 10 -15 10 -8 0
-15 -2 -15 -4z"/>
<path d="M3867 573 c-12 -11 -8 -23 8 -23 8 0 15 7 15 15 0 16 -12 20 -23 8z"/>
<path d="M4920 568 c0 -9 5 -20 10 -23 13 -8 13 5 0 25 -8 13 -10 13 -10 -2z"/>
<path d="M3922 545 c0 -16 2 -22 5 -12 2 9 2 23 0 30 -3 6 -5 -1 -5 -18z"/>
<path d="M4196 472 c-10 -17 0 -29 29 -34 16 -4 24 -1 22 6 -2 6 -10 11 -18
11 -8 0 -17 6 -20 14 -4 11 -8 12 -13 3z"/>
<path d="M3860 320 c0 -5 5 -10 11 -10 5 0 7 5 4 10 -3 6 -8 10 -11 10 -2 0
-4 -4 -4 -10z"/>
<path d="M4807 243 c-12 -12 -7 -22 8 -17 8 4 15 10 15 15 0 11 -14 12 -23 2z"/>
<path d="M4760 230 c-8 -5 -10 -10 -5 -10 6 0 17 5 25 10 8 5 11 10 5 10 -5 0
-17 -5 -25 -10z"/>
<path d="M3749 194 c-11 -14 -8 -15 26 -12 21 2 40 9 43 16 6 18 -53 15 -69
-4z"/>
</g>
</svg>
